<?xml version="1.0" encoding="utf-8"?>
<!-- Generator: Adobe Illustrator 19.1.0, SVG Export Plug-In . SVG Version: 6.00 Build 0)  -->
<svg version="1.1" id="Layer_1" xmlns="http://www.w3.org/2000/svg" xmlns:xlink="http://www.w3.org/1999/xlink" x="0px" y="0px"
	 viewBox="397 -309.4 1406.9 1411.4" style="enable-background:new 397 -309.4 1406.9 1411.4;" xml:space="preserve">
<style type="text/css">
	.st0{fill:#58595B;stroke:#000000;stroke-width:12.397;stroke-miterlimit:10;}
	.st1{fill:#58595B;stroke:#000000;stroke-width:15.4963;stroke-miterlimit:10;}
	.st2{enable-background:new    ;}
	.st3{fill:#E6E7E8;}
</style>
<g id="Layer_1_1_">
	<g>
		<g>
			<path class="st0" d="M1100.5-294c-381.2,0-690.3,309.1-690.3,690.3s309.1,690.3,690.3,690.3s690.3-309.1,690.3-690.3
				S1481.7-294,1100.5-294z M1100.5,1007.1c-337.3,0-610.8-273.5-610.8-610.8s273.5-610.8,610.8-610.8S1711.2,59,1711.2,396.3
				S1437.8,1007.1,1100.5,1007.1z"/>
			<path class="st1" d="M1100.5-214.5c-337.3,0-610.8,273.5-610.8,610.8s273.5,610.8,610.8,610.8s610.8-273.5,610.8-610.8
				S1437.8-214.5,1100.5-214.5z M1100.5,644.6c-137.1,0-248.3-111.2-248.3-248.3S963.3,148,1100.5,148s248.3,111.2,248.3,248.3
				S1237.6,644.6,1100.5,644.6z"/>
			<path class="st0" d="M1100.5,148c-137.1,0-248.3,111.2-248.3,248.3s111.2,248.3,248.3,248.3s248.3-111.2,248.3-248.3
				S1237.6,148,1100.5,148z M1100.5,515.8c-66,0-119.5-53.5-119.5-119.5s53.5-119.5,119.5-119.5S1220,330.3,1220,396.3
				S1166.4,515.8,1100.5,515.8z"/>
		</g>
		<g>
			<g class="st2">
				<path class="st3" d="M652,293.2V380h-16.5v-72.4L613,330l-9.8-10.6l28-26.1L652,293.2L652,293.2z"/>
				<path class="st3" d="M717,292.5c15.9,0,25.8,2.3,29.5,7c3.7,4.7,5.6,17,5.6,37s-1.9,32.4-5.6,37.1c-3.7,4.7-13.6,7-29.5,7
					s-25.8-2.4-29.5-7.1c-3.7-4.7-5.6-17.1-5.6-37.1s1.9-32.3,5.6-37C691.3,294.9,701.1,292.5,717,292.5z M715.7,306.6
					c-7.6,0-12.4,1.1-14.4,3.2c-2,2.2-3,7.3-3,15.4l-0.1,11.4l0.1,10.6c0,8.8,1,14.2,3.1,16.3c2,2.1,7.3,3.1,15.8,3.1
					c8.9,0,14.2-1.5,16-4.4c1.8-2.9,2.7-11.6,2.7-26.1c0-14.6-0.8-23.2-2.5-25.7C731.6,307.9,725.7,306.6,715.7,306.6z"/>
			</g>
			<g class="st2">
				<path class="st3" d="M587.3,401.7v72H628v14.7h-57.1v-86.8L587.3,401.7L587.3,401.7z"/>
				<path class="st3" d="M636.3,488.5v-86.8h42.6c10,0,16.8,1.6,20.4,4.8c3.6,3.2,5.4,9.2,5.4,18.1c0,10.7-4.3,17-12.8,18.9v0.3
					c9.9,1.5,14.9,8.4,14.9,20.7c0,8.9-1.9,15.1-5.7,18.6c-3.8,3.6-10.5,5.3-20,5.3h-44.8V488.5z M652.7,438.2h20.1
					c6.5,0,10.7-0.7,12.5-2.2c1.8-1.4,2.7-4.8,2.7-10c0-6.9-3.9-10.4-11.8-10.4h-23.5V438.2z M652.7,474.6h18.1l5.8-0.1
					c5.6,0,9.2-0.8,11-2.4c1.8-1.6,2.6-4.9,2.6-9.9c0-5.3-0.9-8.6-2.8-9.9c-1.8-1.4-6.4-2-13.6-2h-21L652.7,474.6L652.7,474.6z"/>
				<path class="st3" d="M783.2,427h-16.1c-0.1-0.8-0.1-1.4-0.1-1.8c-0.4-4.9-1.5-7.9-3.2-9.2c-1.8-1.2-6-1.9-12.6-1.9
					c-7.8,0-12.9,0.7-15.3,2.2c-2.4,1.4-3.6,4.5-3.6,9.1c0,5.5,1,8.8,2.9,9.9s8.4,2,19.3,2.5c12.9,0.7,21.3,2.6,25.1,5.5
					c3.8,3,5.7,9.1,5.7,18.5c0,11.5-2.2,19-6.7,22.3c-4.4,3.4-14.3,5.1-29.4,5.1c-13.6,0-22.7-1.7-27.2-5s-6.7-10-6.7-20.1l-0.1-3.2
					h16l0.1,1.8c0,6.1,1.1,9.8,3.2,11.1c2.1,1.4,7.9,2,17.4,2c7.4,0,12.1-0.8,14.1-2.4s3.1-5.2,3.1-10.9c0-4.2-0.8-7-2.3-8.4
					s-4.9-2.2-10-2.5l-9.1-0.6c-13.7-0.8-22.5-2.7-26.3-5.7c-3.8-3-5.7-9.5-5.7-19.4c0-10.1,2.3-16.9,6.9-20.2
					c4.6-3.4,13.8-5.1,27.6-5.1c13.1,0,21.8,1.5,26.4,4.6c4.5,3.1,6.8,9.1,6.8,18.1v3.7H783.2z"/>
			</g>
			<g class="st2">
				<path class="st3" d="M1500.7,293.2v55.4h10v12.7h-10V380h-16.5v-18.6h-46.8v-18.5l37.9-49.6L1500.7,293.2L1500.7,293.2z
					 M1484.3,348.7v-43h-0.5l-32.9,43H1484.3z"/>
				<path class="st3" d="M1536.8,364.4V380h-14.6v-15.6H1536.8z"/>
				<path class="st3" d="M1613.8,293.2v13h-45.6l-0.2,20.9h0.3c3.2-4.5,9.8-6.7,19.8-6.7c11.4,0,19.1,2.1,23.2,6.3
					c4.1,4.2,6.1,12.1,6.1,23.7c0,11.9-2.3,19.9-6.9,24.1c-4.6,4.1-13.4,6.2-26.6,6.2c-13,0-21.7-1.8-26.2-5.3s-6.7-10.3-6.7-20.5
					h16.1c0.3,5.6,1.4,9.1,3.2,10.5c1.8,1.4,6.4,2.1,13.6,2.1c8,0,12.9-0.9,14.6-2.8c1.7-1.8,2.6-7,2.6-15.5c0-6.7-1-10.9-2.9-12.7
					c-1.9-1.8-6.5-2.8-13.5-2.8c-10.3,0-16,2-17,6h-14.9v-46.5L1613.8,293.2L1613.8,293.2z"/>
			</g>
			<g class="st2">
				<path class="st3" d="M1430.6,401.7V437h7.8l28.9-35.3h20.5l-35,42.1l38.7,44.6h-21.1l-31.8-37.6h-7.9v37.6h-16.5v-86.8
					L1430.6,401.7L1430.6,401.7z"/>
				<path class="st3" d="M1532.2,442.3h38.2l0.3,17.2c0,12.5-2.4,20.6-7.1,24.2s-15.3,5.4-31.6,5.4c-15,0-24.9-2.4-29.8-7.2
					c-4.9-4.8-7.3-14.7-7.3-29.6c0-19,1-31,2.9-36c2.4-6.1,6.1-10.2,11-12.3c4.9-2.1,13.3-3.2,25-3.2c15.4,0,25.4,1.6,29.9,4.9
					s6.7,10.6,6.7,21.8h-16.7c-0.3-5.7-1.5-9.2-3.7-10.6s-7.7-2.1-16.4-2.1c-9.5,0-15.6,1.2-18.1,3.6c-2.6,2.4-3.8,7.9-3.8,16.7
					l-0.1,8.7l0.1,11.1c0,8.6,1.3,14.1,3.8,16.4c2.5,2.4,8.4,3.5,17.7,3.5c9,0,14.7-1,17.1-3s3.7-6.7,3.7-14.1l0.1-3.6h-21.8
					L1532.2,442.3L1532.2,442.3z"/>
				<path class="st3" d="M1646.6,427h-16.1c-0.1-0.8-0.1-1.4-0.1-1.8c-0.4-4.9-1.5-7.9-3.2-9.2c-1.8-1.2-6-1.9-12.6-1.9
					c-7.8,0-12.9,0.7-15.3,2.2c-2.4,1.4-3.6,4.5-3.6,9.1c0,5.5,1,8.8,2.9,9.9s8.4,2,19.3,2.5c12.9,0.7,21.3,2.6,25.1,5.5
					c3.8,3,5.7,9.1,5.7,18.5c0,11.5-2.2,19-6.7,22.3c-4.4,3.4-14.3,5.1-29.4,5.1c-13.6,0-22.7-1.7-27.2-5s-6.7-10-6.7-20.1l-0.1-3.2
					h16l0.1,1.8c0,6.1,1.1,9.8,3.2,11.1c2.1,1.4,7.9,2,17.4,2c7.4,0,12.1-0.8,14.1-2.4s3.1-5.2,3.1-10.9c0-4.2-0.8-7-2.3-8.4
					s-4.9-2.2-10-2.5l-9.1-0.6c-13.7-0.8-22.5-2.7-26.3-5.7s-5.7-9.5-5.7-19.4c0-10.1,2.3-16.9,6.9-20.2c4.6-3.4,13.8-5.1,27.6-5.1
					c13.1,0,21.8,1.5,26.4,4.6c4.5,3.1,6.8,9.1,6.8,18.1v3.7H1646.6z"/>
			</g>
		</g>
		<g>
			<g>
				<path class="st3" d="M716.6,155.4c-29.5-22.1-58.9-44.2-88.4-66.4c16.7-21.8,34.4-42.4,53.5-62.1c8.9-8.9,19.6-19.2,31.9-21.8
					c7.4-1.6,15.2,2.4,22.5,11c8.7,10.3,7.4,22.5-0.5,32.8c0.1,0.1,0.2,0.2,0.3,0.3c11.4-8.4,26.8-8.3,35.8,3.4
					c6.6,8.6,10.2,16.8,8.6,23.9c-2.2,10.1-10.4,18.8-17.8,25.9C746,119,730.9,136.8,716.6,155.4z M683.7,93.8
					c7.6-9.1,15.5-17.9,23.7-26.5c7.9-8.3,12.4-13.9,13.4-17.4s-0.9-7.7-5.4-12.5c-7.6-8.1-18.9-1-24.5,5.6
					c-10.1,10.5-19.8,21.3-29.2,32.4C669,81.5,676.3,87.6,683.7,93.8z M719.3,123.7c6.2-7.5,12.7-14.8,19.3-21.8
					c2.5-2.7,3.7-4.1,6.3-6.8c6.2-6.3,9.7-11.1,10.3-14.4c0.6-3.4-1.2-7.4-5.6-12.1c-4.6-4.9-8.6-6.9-12-6S728,68.1,719.5,77
					c-8.3,8.7-16.3,17.6-24,26.9C703.4,110.4,711.3,117,719.3,123.7z"/>
				<path class="st3" d="M877.8-5.8c-17.1,8.7-33.6,18.1-49.9,28.4c1.8,8.9,2.8,13.4,4.9,22.2c-8.6,5.8-12.8,8.8-21.1,15.1
					C801.1,21,793.5-18.3,788.6-58.3c12.8-7.8,25.7-15.1,38.8-22.1c32,24.5,61.8,51.1,89.8,80.1c-9.2,3.8-13.7,5.8-22.8,10.1
					C887.9,3.4,884.6,0.3,877.8-5.8z M865.5-17c-16-13.5-32.4-26.4-49.3-38.8c2.1,20.8,4.9,41.5,8.4,62.1
					C837.9-2.1,851.5-9.9,865.5-17z"/>
				<path class="st3" d="M945-10.8c-11.9-34.9-23.9-69.7-35.8-104.6c24.1-7.9,48.3-14.4,73.2-19.7c12.6-2.5,27.4-4.7,39.3,0.5
					c8.1,3.6,12.8,16,13.4,24c0.8,10.6,0.6,18.9-2.1,23.3c-2.7,4.5-8.8,8.1-18.2,11.2c0,0.3,0.1,0.4,0.1,0.7
					c13-1.5,23.5,4.6,25,18.1c1.2,9.7,1.8,14.5,2.9,24.2c-9.4,1.1-14.1,1.8-23.4,3.4c-1.4-7.9-2-11.9-3.4-19.9
					c-1.4-11.7-12.6-15.9-23-13c-12,2.5-23.9,5.5-35.7,8.8c3.4,11.9,6.9,23.9,10.3,35.8C958.6-15.3,954-13.9,945-10.8z M952.5-70.6
					c12.2-3.5,24.4-6.5,36.8-9.1c8.8-1.9,14.5-4.2,17-7.2s3.1-8.4,1.8-16c-1.3-7.8-3.5-12.6-6.5-14.4c-3.1-1.8-9.2-1.9-18.2,0
					c-13.9,3-27.6,6.4-41.4,10.2C945.5-95,949-82.8,952.5-70.6z"/>
				<path class="st3" d="M1081.6-36c-1.4-36.8-2.9-73.6-4.3-110.4c25.2-0.7,50-0.1,75.1,1.8c11.9,1.5,25.5,2.5,34.9,10.3
					c5.6,4.7,7.4,13.1,5.6,24.2c-2.1,12.8-11.4,20.2-24.3,20.8c0,0.2,0,0.2-0.1,0.4c13.5,3.5,22.1,15.5,19.1,29.4
					c-2.3,10.6-6.1,18.6-12.3,22c-8.5,4.8-19.9,4.3-29.5,3.2C1124.4-36,1103.1-36.6,1081.6-36z M1105.8-100.5
					c10.9,0.2,21.8,0.6,32.7,1.3c10.6,0.7,17.4,0.6,20.5-1c3.1-1.5,5.1-5.5,5.8-12.1c1-8.8-5.2-14.1-18.6-15.1
					c-13.4-1.1-26.8-1.7-40.2-1.8C1106-119.7,1105.9-110.1,1105.8-100.5z M1105.3-54c10.7,0.1,16.1,0.3,26.8,1
					c3.4,0.2,5.2,0.2,8.6,0.5c8.2,0.7,13.7,0.3,16.6-1.4c2.8-1.7,4.7-5.7,5.5-12.1c0.8-6.6-0.1-11-2.8-13s-9.7-3.7-21.1-4.5
					c-11.1-0.7-22.1-1.1-33.2-1.4C1105.5-74.7,1105.4-64.4,1105.3-54z"/>
				<path class="st3" d="M1264.6-105.5c-2.7,9.1-5.4,18.2-8.2,27.3c21.4,6.6,42.1,14.2,62.7,22.9c-2.5,5.7-3.7,8.5-6.2,14.2
					c-20-8.5-40.2-15.8-60.9-22.2c-3,10-6,20-9,30c20.8,6.4,40.9,13.9,60.9,22.5c-2.9,6.4-4.3,9.7-7.2,16.1
					c-26.6-11.5-53.6-20.7-81.7-27.9c8.8-35.8,17.6-71.6,26.4-107.3c34.3,8.7,67.4,20,99.9,34c-2.9,6.5-4.3,9.7-7.2,16.1
					C1311.4-89.7,1288.4-98.2,1264.6-105.5z"/>
				<path class="st3" d="M1408.5-60.7c-16,26.1-31.9,52.2-47.9,78.3c17.8,11.2,34.9,23.2,51.4,36.2c-4.7,5.9-7,8.8-11.7,14.7
					c-22.4-17.5-45.7-33-70.5-46.9c17.6-32.4,35.2-64.8,52.8-97.2C1391.5-70.8,1400.1-65.9,1408.5-60.7z"/>
				<path class="st3" d="M1521.8,29.6c-21.8,21.4-43.6,42.9-65.4,64.3c15.3,16,29.5,32.6,43,50.2c-6,4.5-9,6.8-15,11.3
					c-18.2-23.6-37.8-45.4-59.5-65.8c24.9-27.2,49.8-54.3,74.7-81.5C1507.1,15,1514.6,22.2,1521.8,29.6z"/>
			</g>
		</g>
		<g>
			<g>
				<path class="st3" d="M1462.1,770.3c6.4-6,9.5-9,15.7-15.3c0.7,0.5,1.1,0.9,1.4,1.1c3.8,3.1,7.1,4.1,9.7,3.2s7.2-4.7,13.5-11.6
					c7.4-8.2,11.5-14.2,12.6-17.8c1.1-3.5-0.2-6.8-3.7-9.7c-4.2-3.5-7.6-4.5-10.2-3.2s-8.8,8-19.3,18.1
					c-7.8,7.5-16.8,17.1-27.4,19.9c-5.4,1.4-11.6-1.6-18-8.5c-7.8-8.5-11-16.1-9.3-22c3.2-10.7,13.5-20.9,21.3-29.2
					c7.5-8.1,15.3-18.3,25.4-22.6c5.8-2.5,13.1-0.7,21.2,5.4c1,0.7,1.6,1.1,2.6,1.8c-5.1,6.8-7.7,10.1-13,16.6
					c-0.6-0.4-0.9-0.7-1.5-1.1c-4.7-3.8-8.4-5.1-11.2-3.9c-2.8,1.2-7.9,6.4-15.9,15.2c-6.2,6.8-9.7,11.5-10.4,14.5
					c-0.7,2.9,1,6.4,5,10.4c3,3,5.6,4.2,8,3.8c2.4-0.5,6-3,10.8-7.7c3.4-3.3,5.1-5,8.5-8.5c8.1-8.2,16.6-18.8,26.9-23.5
					c5.3-2.4,12.3-0.5,20.2,5.5c8.1,6.1,11.7,13.1,10,20.2c-3,12.9-13.3,24-21.9,34c-7.9,9.1-18.3,19.9-29.6,24
					c-6.5,2.4-13.2-0.1-19.3-6.6C1463.5,771.8,1463,771.3,1462.1,770.3z"/>
				<path class="st3" d="M1404.3,830.1c-13.5-19.9-27-39.8-40.4-59.7c6.4-4.3,9.5-6.6,15.7-11.2c14.3,19.3,28.6,38.6,42.8,57.9
					c9.1-6.9,17.9-13.9,26.7-21.2c3.8,4.5,5.7,6.8,9.5,11.3c-24.1,20-49.4,37.9-76.2,54.1c-3-5.1-4.5-7.6-7.5-12.7
					C1384.9,842.6,1394.6,836.5,1404.3,830.1z"/>
				<path class="st3" d="M1267.6,838.2c13.8-5.2,27.4-10.9,40.9-17c-0.5-7.1-0.8-10.7-1.5-17.7c7.2-3.5,10.7-5.3,17.8-9.2
					c3.9,31.2,5.9,62.3,6.3,93.8c-10.2,4.5-20.5,8.8-30.9,12.9c-22.3-22.2-43.1-45.6-62.7-70.2c7.4-2.2,11.1-3.5,18.5-6
					C1260.5,830.1,1262.9,832.9,1267.6,838.2z M1276.1,848c11.1,12,22.5,23.8,34.4,35c0.1-16.3-0.1-32.6-1.1-48.9
					C1298.5,839.2,1287.4,843.8,1276.1,848z"/>
				<path class="st3" d="M1129.9,936.9c-1.5-28.9-3.1-57.8-4.6-86.6c10.4-0.5,21-1.4,31.3-2.7c11.5,14.8,23.5,28.9,36.2,42.7
					c1.9,2.1,5,5.7,9.5,10.9c1.9,2.2,2.8,3.3,4.7,5.4c1.9,2.2,2.8,3.2,4.7,5.4c0.3-0.1,0.5-0.1,0.8-0.2c-0.6-2.2-0.9-3.3-1.5-5.5
					s-0.8-3.3-1.4-5.5c-1-4.4-1.5-6.7-2.5-11.1c-3.4-16.2-6.8-32.5-10.2-48.7c7.3-1.5,10.9-2.3,18.2-4.2
					c7.1,28.1,14.1,56.1,21.2,84.2c-12.1,3-24.3,5.6-36.5,7.8c-12.3-12.6-24-25.6-35.3-39.1c-2.9-3.6-6.3-7.9-10-13.1
					c-1.9-2.6-2.8-4-4.6-6.6c-1.8-2.7-2.7-4-4.5-6.7c-0.3,0-0.4,0-0.7,0.1c0.3,2.2,0.4,3.3,0.7,5.6c0.3,2.2,0.4,3.3,0.7,5.5
					c0.5,4.5,0.7,6.7,1.2,11.1c1.5,16.6,3.1,33.2,4.6,49.7C1143,936.2,1138.7,936.5,1129.9,936.9z"/>
				<path class="st3" d="M1093.4,850.9c-0.4,28.9-0.9,57.8-1.3,86.7c-19-0.5-37.9-1.7-56.8-3.7c-11.5-2-24.5-3.7-32.3-12.8
					c-6.5-7.6-6.1-19.5-4-29.1c3-13.4,5.4-30.5,14.8-39.7c7.1-7,21.2-6.1,31.1-4.7C1061,849.5,1077.2,850.7,1093.4,850.9z
					 M1074.2,864.1c-10.9-0.6-16.3-1-27.1-2.2c-9.1-1-15.2-0.1-18.4,3.1c-3.2,3.2-5.8,10.9-7.8,23.1c-2,12.6-2,20.9,0.2,24.7
					c2.1,3.8,8.2,6.5,18.1,7.6c10.5,1.2,21.2,2.1,31.8,2.6C1072,903.4,1073.1,883.7,1074.2,864.1z"/>
				<path class="st3" d="M918.5,832.6c13.7,5.3,27.5,10.1,41.6,14.5c4.4-5.7,6.5-8.5,10.7-14.2c7.6,2.2,11.4,3.2,19.1,5
					c-17.9,25.8-37.1,50.4-57.8,74c-10.6-3.5-21-7.1-31.5-11c-1.7-31.4-1.6-62.7,0.4-94.1c7.1,3.3,10.7,4.9,17.9,7.9
					C918.7,821.8,918.6,825.4,918.5,832.6z M918.3,845.5c0.2,16.3,0.8,32.7,2,48.9c11-12,21.7-24.4,31.9-37.1
					C940.7,853.8,929.4,849.9,918.3,845.5z"/>
				<path class="st3" d="M879.9,796.3c-13.6,25.5-27.2,51.1-40.8,76.6c-17.3-9.2-34.1-19.3-50.3-30.3c-8.3-5.5-17.9-12.8-21.4-22.2
					c-2.3-6.1-0.2-13.3,5.8-20.9c5.4-6.9,10.1-10.8,14.2-11.8c4-1,9.5,0.5,16.6,4.1c0.1-0.2,0.2-0.3,0.3-0.5
					c-8.2-5.8-11.2-16.2-4.2-24.3c4.7-6,7.1-9.1,11.8-15.1c6.1,4.8,9.2,7.1,15.5,11.6c-3.7,5.2-5.5,7.7-9.2,12.9
					c-5.2,7.3-3.4,14.2,5.7,20.3c8.1,5.4,16.4,10.6,24.8,15.5c4.9-8.4,9.9-16.8,14.8-25.3C869.9,790.9,873.2,792.7,879.9,796.3z
					 M841.6,824.2c-8.6-5-17.1-10.3-25.4-15.9c-6-4-10.4-5.9-13.5-5.7c-3.1,0.3-6.4,2.8-10,7.8s-5.1,8.9-4.4,11.6s4,6.2,10,10.2
					c9.3,6.1,18.6,12,28.2,17.7C831.5,841.4,836.5,832.8,841.6,824.2z"/>
				<path class="st3" d="M787.2,731.3c-19.3,21.5-38.6,43.1-57.9,64.6c-15-13.8-29.3-28.2-43-43.3c-7.9-9.9-17.2-20.6-17.6-33.5
					c-0.3-10.3,7.6-19.3,15.8-25.1c11.2-7.9,24.7-19.2,37.9-19.1c11.1,0.1,20.4,11.4,28.1,19.4C762.3,707.2,774.4,719.5,787.2,731.3
					z M763.2,727.7c-7-6.8-13.8-13.9-20.3-21.1c-6.6-7.4-12.2-11.1-16.8-11.1c-4.7,0-11.8,3.9-21.4,11.8c-9.9,8.1-15.3,14.4-16,18.9
					c-0.8,4.5,2.3,11,9.6,19c7.8,8.4,15.6,16.7,23.7,24.8C735.7,755.9,749.4,741.8,763.2,727.7z"/>
			</g>
		</g>
	</g>
</g>
<g id="Layer_2">
</g>
</svg>
